Coordinates
version=1
nRows=14
nColumns=40
inDegrees=yes

Units are S.I. units (second, meters, Newtons, ...)
Angles are in degrees.

endheader
time	pelvis_tilt	pelvis_list	pelvis_rotation	pelvis_tx	pelvis_ty	pelvis_tz	hip_flexion_r	hip_adduction_r	hip_rotation_r	knee_angle_r	knee_angle_r_beta	ankle_angle_r	subtalar_angle_r	mtp_angle_r	hip_flexion_l	hip_adduction_l	hip_rotation_l	knee_angle_l	knee_angle_l_beta	ankle_angle_l	subtalar_angle_l	mtp_angle_l	lumbar_extension	lumbar_bending	lumbar_rotation	arm_flex_r	arm_add_r	arm_rot_r	elbow_flex_r	pro_sup_r	wrist_flex_r	wrist_dev_r	arm_flex_l	arm_add_l	arm_rot_l	elbow_flex_l	pro_sup_l	wrist_flex_l	wrist_dev_l
      1.74000000	     -3.01550979	      0.68144618	     -2.82248405	     -0.02860405	      0.88290952	      1.43795271	      5.55422334	     -3.28205317	     -6.32542857	    -48.33010309	     -0.84351943	     -4.02108103	     -7.72733887	      1.20207269	     25.88892084	      0.36519210	     11.40320110	    -30.82666129	     -0.53802674	      4.63798218	     12.86499911	      4.03774472	     -1.35733595	     -1.33031590	     -1.02419544	      0.45803164	     -9.51452919	    -10.59389170	     31.06645649	     89.95437384	      0.00000000	      0.00000000	     -2.82032136	      7.68837531	     17.39373748	     27.60461110	     89.95437384	      0.00000000	      0.00000000
      1.75000000	     -3.06375474	      1.10438999	     -3.15629658	     -0.02230221	      0.88303278	      1.43629254	      7.14209480	     -3.88213803	     -5.71628721	    -50.94763842	     -0.88920404	     -5.38380739	     -9.22391407	      1.85696765	     25.40530574	     -0.11105991	     11.92383770	    -30.74802642	     -0.53665430	      5.49493813	     12.65821521	      3.90752151	     -1.26643212	     -1.81089534	     -0.81999411	      0.37167551	     -9.53244153	    -10.45502265	     30.69917144	     89.95437384	      0.00000000	      0.00000000	     -2.72368569	      7.83703797	     17.08547196	     28.04046281	     89.95437384	      0.00000000	      0.00000000
      1.76000000	     -2.71580660	      0.79452078	     -2.87462931	     -0.01593231	      0.88387331	      1.43440527	      7.82367604	     -3.65097173	     -5.72194549	    -52.93115446	     -0.92382292	     -5.82105155	     -9.26940926	      1.90359261	     24.62096058	      0.02303225	     11.90863140	    -30.86550797	     -0.53870474	      5.58414835	     12.33572400	      3.82558204	     -1.74848497	     -1.50347290	     -1.32692047	      0.25491677	     -9.52242415	    -10.45891264	     30.75500326	     89.95437384	      0.00000000	      0.00000000	     -2.50868772	      7.93921080	     16.93109693	     28.32070040	     89.95437384	      0.00000000	      0.00000000
      1.77000000	     -2.91168394	      0.92965454	     -3.03855857	     -0.01048362	      0.88372660	      1.43286696	      9.61359855	     -3.81747631	     -5.42364434	    -55.37404043	     -0.96645933	     -7.42448222	    -12.29399157	      4.24477291	     24.49479155	     -0.27590368	     11.83100349	    -31.04198073	     -0.54178477	      6.21835803	     12.74150448	      3.94956694	     -1.60091417	     -1.66819438	     -1.17050715	      0.16878050	     -9.51753029	    -10.56276389	     30.42763431	     89.95437384	      0.00000000	      0.00000000	     -2.26667877	      8.14889654	     16.21271181	     28.75074312	     89.95437384	      0.00000000	      0.00000000
      1.78000000	     -2.55076840	      0.67961436	     -2.82501598	     -0.00413936	      0.88456861	      1.43111908	     10.31253283	     -3.72008695	     -5.58838907	    -57.16780770	     -0.99776647	     -7.58329625	    -12.26258497	      4.26369749	     23.65378890	     -0.17266598	     11.91676321	    -31.09042358	     -0.54263026	      6.50132102	     12.39689611	      3.84959233	     -2.06604229	     -1.42326739	     -1.60906888	      0.09790322	     -9.49997492	    -10.55196024	     30.37831350	     89.95437384	      0.00000000	      0.00000000	     -2.05992440	      8.24700779	     16.12690744	     29.05663164	     89.95437384	      0.00000000	      0.00000000
      1.79000000	     -2.23736319	      0.85294754	     -2.79856455	      0.00233840	      0.88522562	      1.42965578	     11.15638800	     -4.06114290	     -5.63069356	    -58.92360925	     -1.02841099	     -7.45107229	    -13.32899423	      4.75760272	     22.78606930	     -0.51016035	     12.06076665	    -31.07652479	     -0.54238768	      7.38772977	     12.04877430	      3.70004847	     -2.37976027	     -1.68307989	     -1.81497854	      0.10174549	     -9.39812620	    -10.56480240	     29.97530408	     89.95437384	      0.00000000	      0.00000000	     -1.95541545	      8.47121960	     15.90109738	     29.55653987	     89.95437384	      0.00000000	      0.00000000
      1.80000000	     -2.04512530	      0.78844687	     -2.63242903	      0.00827904	      0.88579695	      1.42811084	     12.09506254	     -4.11331901	     -5.79605978	    -60.43562266	     -1.05480060	     -7.08396422	    -13.96986306	      5.29734269	     22.17277913	     -0.61020192	     12.02027416	    -31.13692128	     -0.54344180	      7.79762462	     11.90853307	      3.62293966	     -2.64500894	     -1.65147529	     -2.14078071	      0.05449952	     -9.30824831	    -10.68565190	     29.79438042	     89.95437384	      0.00000000	      0.00000000	     -1.75941745	      8.65840875	     15.61263863	     29.95604982	     89.95437384	      0.00000000	      0.00000000
      1.81000000	     -1.79761393	      0.49912668	     -2.40006386	      0.01414623	      0.88654398	      1.42662230	     12.89000078	     -3.93604025	     -6.08322303	    -61.65586919	     -1.07609792	     -6.90440665	    -13.83102341	      5.26868259	     21.50530152	     -0.44884927	     11.95976024	    -31.17392697	     -0.54408767	      7.84926953	     11.68200020	      3.55781181	     -2.99224534	     -1.36570083	     -2.53253232	     -0.04118773	     -9.27825520	    -10.70690624	     29.79552921	     89.95437384	      0.00000000	      0.00000000	     -1.47191143	      8.80134356	     15.49337269	     30.20756306	     89.95437384	      0.00000000	      0.00000000
      1.82000000	     -1.63815132	      0.39806284	     -2.12349722	      0.02014557	      0.88705182	      1.42520958	     13.75986792	     -3.94043713	     -6.38658452	    -62.80536939	     -1.09616048	     -6.04332852	    -14.26857008	      5.63623067	     20.97612809	     -0.59228550	     11.50441449	    -31.31074697	     -0.54647563	      8.52454012	     11.62230192	      3.42374891	     -3.16699373	     -1.31164201	     -2.93306737	     -0.07590024	     -9.11326407	    -10.96245521	     29.46972514	     89.95437384	      0.00000000	      0.00000000	     -1.26079138	      9.01531428	     15.15331185	     30.60339374	     89.95437384	      0.00000000	      0.00000000
      1.83000000	     -1.43755879	      0.13238674	     -1.92027019	      0.02597893	      0.88775376	      1.42389969	     14.56927770	     -3.82324642	     -6.75953440	    -63.67553581	     -1.11134775	     -5.82713332	    -14.06233680	      5.60720993	     20.37362075	     -0.44085864	     11.42716689	    -31.35015163	     -0.54716337	      8.57533581	     11.46974798	      3.36300601	     -3.43043442	     -1.03868800	     -3.25668415	     -0.21340857	     -9.05816459	    -11.00321647	     29.47086687	     89.95437384	      0.00000000	      0.00000000	     -0.97974313	      9.15433100	     15.06265997	     30.84495575	     89.95437384	      0.00000000	      0.00000000
      1.84000000	     -1.26629900	     -0.05793913	     -1.66858637	      0.03184019	      0.88840885	      1.42251162	     15.34436804	     -3.73648425	     -7.11919553	    -64.36299916	     -1.12334625	     -5.22789684	    -14.10874225	      5.66928462	     19.79633822	     -0.44852248	     11.13276738	    -31.41055886	     -0.54821767	      8.97701029	     11.39248467	      3.26285580	     -3.62953954	     -0.86502164	     -3.56643646	     -0.34474000	     -8.96111875	    -11.18707533	     29.30222609	     89.95437384	      0.00000000	      0.00000000	     -0.69348680	      9.27580462	     14.94866015	     31.10985299	     89.95437384	      0.00000000	      0.00000000
      1.85000000	     -1.13862711	     -0.27350029	     -1.42183984	      0.03753905	      0.88903634	      1.42125027	     16.18708023	     -3.63709355	     -7.48919074	    -64.90573725	     -1.13281882	     -4.77346251	    -14.05773878	      5.64387612	     19.20952608	     -0.34888478	     11.08219151	    -31.34010953	     -0.54698810	      9.18405694	     11.28739796	      3.19480986	     -3.78553558	     -0.64738654	     -3.96310162	     -0.46201069	     -8.84812208	    -11.31469208	     29.28582330	     89.95437384	      0.00000000	      0.00000000	     -0.44674473	      9.42290944	     14.87790550	     31.33734558	     89.95437384	      0.00000000	      0.00000000
      1.86000000	     -1.03991422	     -0.45023535	     -1.00917836	      0.04308909	      0.88963895	      1.41977658	     16.94382842	     -3.59572984	     -8.02845575	    -65.20534408	     -1.13804794	     -3.64102972	    -14.46527687	      5.83987797	     18.67135946	     -0.44925545	     10.48726775	    -31.27705758	     -0.54588764	      9.78759903	     11.26746484	      3.06624808	     -3.90941636	     -0.48488710	     -4.39490747	     -0.53941163	     -8.65933036	    -11.74974810	     29.00385211	     89.95437384	      0.00000000	      0.00000000	     -0.14009236	      9.57020956	     14.76632163	     31.59028091	     89.95437384	      0.00000000	      0.00000000
      1.87000000	     -0.88688993	     -0.58551358	     -0.55513811	      0.04862515	      0.89032384	      1.41832157	     17.63941758	     -3.65696007	     -8.67211220	    -65.34943647	     -1.14056283	     -3.00938324	    -14.60787146	      6.72375277	     18.01283448	     -0.59679743	      9.90329902	    -31.07215015	     -0.54231133	     10.05649695	     11.47684960	      2.96739686	     -4.11119430	     -0.36753174	     -4.93987299	     -0.64641908	     -8.39973168	    -12.33594365	     28.96112289	     89.95437384	      0.00000000	      0.00000000	      0.09413951	      9.75120109	     14.66948237	     31.91605292	     89.95437384	      0.00000000	      0.00000000
